<svg width="48" height="56" viewBox="0 0 48 56" fill="none" xmlns="http://www.w3.org/2000/svg">
<path fill-rule="evenodd" clip-rule="evenodd" d="M32.6132 4.57688C32.8521 2.44323 31.3394 0.516583 29.2058 0.277741C27.0721 0.0229777 25.1455 1.55156 24.9066 3.68521C24.62 6.12139 25.0181 9.03525 25.5276 12.0287C26.9447 12.4586 28.3141 13.0796 29.5879 13.8121C30.9573 10.5798 32.2948 7.37928 32.6132 4.57688ZM47.5965 13.9395C46.7526 11.965 44.4598 11.0734 42.4853 11.9173C39.8899 13.0478 37.199 15.261 34.4921 17.538C35.5112 18.5411 36.4665 19.6716 37.2786 20.8977C40.3517 20.5155 43.2974 20.0538 45.5743 19.0666C47.5488 18.1908 48.4564 15.8979 47.5965 13.9395ZM41.0523 3.52598C39.3326 2.25216 36.8965 2.60246 35.6226 4.32212C33.6801 6.93345 32.3744 10.8345 30.9573 14.64C31.435 14.9585 31.8808 15.277 32.3107 15.6113C32.6292 15.8661 32.9635 16.1368 33.2979 16.4075C36.5462 13.9554 39.9218 11.567 41.8643 8.95563C43.1382 7.23598 42.7719 4.7998 41.0523 3.52598Z" fill="#53B175"/>
<path d="M33.6649 34.7027C32.4706 35.9925 31.1968 37.1867 29.8434 38.349C27.9486 39.9891 26.0219 41.5814 24.0634 43.1099C21.9616 41.8202 20.449 41.1674 20.1942 41.5017C19.9713 41.8043 20.847 42.9189 22.4234 44.3678C17.1371 48.3008 11.5482 51.7719 5.5453 54.6221C4.60586 55.0679 3.61865 55.3864 2.64736 55.7367C2.3926 55.8322 2.12191 55.8322 2.01045 55.8481C0.481868 56.0233 0.0201089 55.6093 0.0837999 54.2081C0.274873 49.8453 1.62831 45.7531 3.02951 41.6769C3.41165 40.5623 3.80972 39.4477 4.22371 38.3331C6.34144 39.6229 7.8541 40.2916 8.10886 39.9572C8.37955 39.591 7.10573 38.1261 4.97208 36.295C6.50066 32.3462 8.2044 28.461 10.2107 24.7351C14.2232 27.7127 17.7899 29.6712 18.188 29.1298C18.586 28.5884 15.6403 25.7064 11.58 22.697L11.4049 22.5696C12.1055 21.3754 12.8379 20.1812 13.6181 19.0188C14.5894 17.5539 15.7836 16.2164 16.9619 14.9108C18.5383 13.1752 20.5764 12.5861 22.8533 13.0956C30.1459 14.7197 35.2094 18.9074 37.5978 26.0885C38.0755 27.5534 37.6455 28.9865 36.8972 30.3081C36.3876 31.1997 35.8303 32.0436 35.2094 32.8398C31.3561 30.0215 28.0123 28.2063 27.6301 28.7158C27.2639 29.2253 29.923 31.8526 33.6649 34.7027Z" fill="#F3603F"/>
</svg>
